<svg width="34" height="34" viewBox="0 0 34 34" fill="none" xmlns="http://www.w3.org/2000/svg">
<g id="search_24px">
<path id="icon/action/search_24px" fill-rule="evenodd" clip-rule="evenodd" d="M23.5273 22.3585H24.8278L29.75 27.2971L27.2971 29.75L22.3585 24.8278V23.5273L21.914 23.0663C20.0373 24.6796 17.6009 25.6509 14.9505 25.6509C9.04051 25.6509 4.25 20.8604 4.25 14.9505C4.25 9.04051 9.04051 4.25 14.9505 4.25C20.8604 4.25 25.6509 9.04051 25.6509 14.9505C25.6509 17.6009 24.6796 20.0373 23.0663 21.914L23.5273 22.3585ZM7.54245 14.9505C7.54245 19.0495 10.8514 22.3585 14.9505 22.3585C19.0495 22.3585 22.3585 19.0495 22.3585 14.9505C22.3585 10.8514 19.0495 7.54245 14.9505 7.54245C10.8514 7.54245 7.54245 10.8514 7.54245 14.9505Z" fill="white" fill-opacity="0.8"/>
</g>
</svg>
