<svg width="34" height="34" viewBox="0 0 34 34" fill="none" xmlns="http://www.w3.org/2000/svg">
<g id="settings_24px">
<path id="icon/action/settings_24px" fill-rule="evenodd" clip-rule="evenodd" d="M6.37187 17C6.37187 16.5183 6.41437 16.065 6.47104 15.6117L3.48187 13.2742C3.2127 13.0617 3.14187 12.6792 3.31187 12.3675L6.1452 7.46584C6.2727 7.23917 6.51354 7.11167 6.75437 7.11167C6.83937 7.11167 6.92437 7.12584 7.00937 7.15417L10.5369 8.57084C11.2735 8.01834 12.0669 7.53667 12.931 7.1825L13.4694 3.42834C13.5119 3.08834 13.8094 2.83334 14.1635 2.83334L19.8302 2.83334C20.1844 2.83334 20.4819 3.08834 20.5244 3.42834L21.0627 7.1825C21.9269 7.53667 22.7202 8.00417 23.4569 8.57084L26.9844 7.15417C27.0552 7.12583 27.1402 7.11167 27.2252 7.11167C27.4802 7.11167 27.721 7.23917 27.8485 7.46584L30.6819 12.3675C30.8519 12.6792 30.781 13.0617 30.5119 13.2742L27.5227 15.6117C27.5794 16.065 27.6219 16.5325 27.6219 17C27.6219 17.4675 27.5794 17.935 27.5227 18.3883L30.5119 20.7258C30.781 20.9383 30.866 21.3208 30.6819 21.6325L27.8485 26.5342C27.721 26.7608 27.4802 26.8883 27.2394 26.8883C27.1544 26.8883 27.0694 26.8742 26.9844 26.8458L23.4569 25.4292C22.7202 25.9817 21.9269 26.4633 21.0627 26.8175L20.5244 30.5717C20.4819 30.9117 20.1844 31.1667 19.8302 31.1667L14.1635 31.1667C13.8094 31.1667 13.5119 30.9117 13.4694 30.5717L12.931 26.8175C12.0669 26.4633 11.2735 25.9958 10.5369 25.4292L7.00937 26.8458C6.93854 26.8742 6.85354 26.8883 6.76854 26.8883C6.51354 26.8883 6.2727 26.7608 6.1452 26.5342L3.31187 21.6325C3.14187 21.3208 3.2127 20.9383 3.48187 20.7258L6.47104 18.3883C6.41437 17.935 6.37187 17.4817 6.37187 17ZM9.2052 17C9.2052 17.2975 9.21937 17.595 9.27604 18.0342L9.47437 19.635L8.21354 20.6267L6.6977 21.8308L7.68937 23.545L9.48854 22.8225L10.9902 22.2133L12.2794 23.205C12.846 23.63 13.4127 23.9558 14.0219 24.2108L15.5235 24.82L15.7502 26.4208L16.0194 28.3333L17.9885 28.3333L18.2719 26.4208L18.4985 24.82L20.0002 24.2108C20.581 23.97 21.1619 23.63 21.771 23.1767L23.046 22.2133L24.5194 22.8083L26.3185 23.5308L27.3102 21.8167L25.7802 20.6267L24.5194 19.635L24.7177 18.0342C24.7602 17.6092 24.7885 17.2833 24.7885 17C24.7885 16.7167 24.7602 16.3908 24.7177 15.9517L24.5194 14.3508L25.7802 13.3592L27.3102 12.1692L26.3185 10.455L24.5194 11.1775L23.0177 11.7867L21.7285 10.795C21.1619 10.37 20.5952 10.0442 19.986 9.78917L18.4844 9.18L18.2577 7.57917L17.9885 5.66667L16.0052 5.66667L15.7219 7.57917L15.4952 9.18L13.9935 9.78917C13.4127 10.03 12.8319 10.37 12.2227 10.8233L10.9477 11.7867L9.47437 11.1917L7.6752 10.4692L6.68354 12.1833L8.21354 13.3733L9.47437 14.365L9.27604 15.9658C9.23354 16.3908 9.2052 16.7025 9.2052 17ZM16.9969 22.6667C20.1277 22.6667 22.6635 20.1308 22.6635 17C22.6635 13.8692 20.1277 11.3333 16.9969 11.3333C13.866 11.3333 11.3302 13.8692 11.3302 17C11.3302 20.1308 13.866 22.6667 16.9969 22.6667ZM19.8302 17C19.8302 15.4417 18.5552 14.1667 16.9969 14.1667C15.4385 14.1667 14.1635 15.4417 14.1635 17C14.1635 18.5583 15.4385 19.8333 16.9969 19.8333C18.5552 19.8333 19.8302 18.5583 19.8302 17Z" fill="white" fill-opacity="0.8"/>
</g>
</svg>
